<?xml version="1.0" encoding="UTF-8" standalone="no"?>
<!DOCTYPE svg PUBLIC "-//W3C//DTD SVG 1.1//EN"
 "http://www.w3.org/Graphics/SVG/1.1/DTD/svg11.dtd">
<!-- Generated by graphviz version 2.40.1 (20161225.0304)
 -->
<!-- Title: public.account_contact Pages: 1 -->
<svg width="1054pt" height="742pt"
 viewBox="0.00 0.00 1054.00 742.00" xmlns="http://www.w3.org/2000/svg" xmlns:xlink="http://www.w3.org/1999/xlink">
<g id="graph0" class="graph" transform="scale(1 1) rotate(0) translate(4 738)">
<title>public.account_contact</title>
<polygon fill="#ffffff" stroke="transparent" points="-4,4 -4,-738 1050,-738 1050,4 -4,4"/>
<!-- public.account_contact -->
<g id="node1" class="node">
<title>public.account_contact</title>
<polygon fill="#efefef" stroke="transparent" points="379,-652.5 379,-687.5 673,-687.5 673,-652.5 379,-652.5"/>
<polygon fill="none" stroke="#000000" points="379,-652.5 379,-687.5 673,-687.5 673,-652.5 379,-652.5"/>
<text text-anchor="start" x="385.8404" y="-665.3" font-family="Arial Bold" font-size="18.00" fill="#000000">public.account_contact</text>
<text text-anchor="start" x="568.9058" y="-665.3" font-family="Arial" font-size="14.00" fill="#000000"> </text>
<text text-anchor="start" x="572.7964" y="-665.3" font-family="Arial" font-size="14.00" fill="#666666">[BASE TABLE]</text>
<polygon fill="none" stroke="#000000" points="379,-622.5 379,-652.5 673,-652.5 673,-622.5 379,-622.5"/>
<text text-anchor="start" x="386" y="-633.9" font-family="Arial" font-size="14.00" fill="#000000">id </text>
<text text-anchor="start" x="400.7798" y="-633.9" font-family="Arial" font-size="14.00" fill="#666666">[bigint]</text>
<polygon fill="none" stroke="#000000" points="379,-592.5 379,-622.5 673,-622.5 673,-592.5 379,-592.5"/>
<text text-anchor="start" x="386" y="-603.9" font-family="Arial" font-size="14.00" fill="#000000">created_at </text>
<text text-anchor="start" x="456.028" y="-603.9" font-family="Arial" font-size="14.00" fill="#666666">[timestamp with time zone]</text>
<polygon fill="none" stroke="#000000" points="379,-562.5 379,-592.5 673,-592.5 673,-562.5 379,-562.5"/>
<text text-anchor="start" x="386" y="-573.9" font-family="Arial" font-size="14.00" fill="#000000">updated_at </text>
<text text-anchor="start" x="459.9326" y="-573.9" font-family="Arial" font-size="14.00" fill="#666666">[timestamp with time zone]</text>
<polygon fill="none" stroke="#000000" points="379,-532.5 379,-562.5 673,-562.5 673,-532.5 379,-532.5"/>
<text text-anchor="start" x="386" y="-543.9" font-family="Arial" font-size="14.00" fill="#000000">account_id </text>
<text text-anchor="start" x="457.5834" y="-543.9" font-family="Arial" font-size="14.00" fill="#666666">[bigint]</text>
<polygon fill="none" stroke="#000000" points="379,-502.5 379,-532.5 673,-532.5 673,-502.5 379,-502.5"/>
<text text-anchor="start" x="386" y="-513.9" font-family="Arial" font-size="14.00" fill="#000000">contact_id </text>
<text text-anchor="start" x="453.6914" y="-513.9" font-family="Arial" font-size="14.00" fill="#666666">[bigint]</text>
<polygon fill="none" stroke="#000000" stroke-width="3" points="377.5,-501.5 377.5,-689.5 674.5,-689.5 674.5,-501.5 377.5,-501.5"/>
</g>
<!-- public.accounts -->
<g id="node2" class="node">
<title>public.accounts</title>
<polygon fill="#efefef" stroke="transparent" points="221,-342.5 221,-377.5 474,-377.5 474,-342.5 221,-342.5"/>
<polygon fill="none" stroke="#000000" points="221,-342.5 221,-377.5 474,-377.5 474,-342.5 221,-342.5"/>
<text text-anchor="start" x="236.855" y="-355.3" font-family="Arial Bold" font-size="18.00" fill="#000000">public.accounts</text>
<text text-anchor="start" x="360.8912" y="-355.3" font-family="Arial" font-size="14.00" fill="#000000"> </text>
<text text-anchor="start" x="364.7818" y="-355.3" font-family="Arial" font-size="14.00" fill="#666666">[BASE TABLE]</text>
<polygon fill="none" stroke="#000000" points="221,-312.5 221,-342.5 474,-342.5 474,-312.5 221,-312.5"/>
<text text-anchor="start" x="228" y="-323.9" font-family="Arial" font-size="14.00" fill="#000000">id </text>
<text text-anchor="start" x="242.7798" y="-323.9" font-family="Arial" font-size="14.00" fill="#666666">[bigint]</text>
<polygon fill="none" stroke="#000000" points="221,-282.5 221,-312.5 474,-312.5 474,-282.5 221,-282.5"/>
<text text-anchor="start" x="228" y="-293.9" font-family="Arial" font-size="14.00" fill="#000000">created_at </text>
<text text-anchor="start" x="298.028" y="-293.9" font-family="Arial" font-size="14.00" fill="#666666">[timestamp with time zone]</text>
<polygon fill="none" stroke="#000000" points="221,-252.5 221,-282.5 474,-282.5 474,-252.5 221,-252.5"/>
<text text-anchor="start" x="227.6915" y="-263.9" font-family="Arial" font-size="14.00" fill="#000000">updated_at </text>
<text text-anchor="start" x="301.6241" y="-263.9" font-family="Arial" font-size="14.00" fill="#666666">[timestamp with time zone]</text>
<polygon fill="none" stroke="#000000" points="221,-222.5 221,-252.5 474,-252.5 474,-222.5 221,-222.5"/>
<text text-anchor="start" x="228" y="-233.9" font-family="Arial" font-size="14.00" fill="#000000">name </text>
<text text-anchor="start" x="266.899" y="-233.9" font-family="Arial" font-size="14.00" fill="#666666">[varchar(255)]</text>
<polygon fill="none" stroke="#000000" points="221,-192.5 221,-222.5 474,-222.5 474,-192.5 221,-192.5"/>
<text text-anchor="start" x="228" y="-203.9" font-family="Arial" font-size="14.00" fill="#000000">email </text>
<text text-anchor="start" x="265.3296" y="-203.9" font-family="Arial" font-size="14.00" fill="#666666">[varchar(255)]</text>
<polygon fill="none" stroke="#000000" points="221,-162.5 221,-192.5 474,-192.5 474,-162.5 221,-162.5"/>
<text text-anchor="start" x="228" y="-173.9" font-family="Arial" font-size="14.00" fill="#000000">picture </text>
<text text-anchor="start" x="273.8962" y="-173.9" font-family="Arial" font-size="14.00" fill="#666666">[varchar(1024)]</text>
<polygon fill="none" stroke="#000000" points="221,-132.5 221,-162.5 474,-162.5 474,-132.5 221,-132.5"/>
<text text-anchor="start" x="228" y="-143.9" font-family="Arial" font-size="14.00" fill="#000000">organization </text>
<text text-anchor="start" x="308.1332" y="-143.9" font-family="Arial" font-size="14.00" fill="#666666">[varchar(255)]</text>
<polygon fill="none" stroke="#000000" points="221,-102.5 221,-132.5 474,-132.5 474,-102.5 221,-102.5"/>
<text text-anchor="start" x="228" y="-113.9" font-family="Arial" font-size="14.00" fill="#000000">status </text>
<text text-anchor="start" x="269.237" y="-113.9" font-family="Arial" font-size="14.00" fill="#666666">[integer]</text>
<polygon fill="none" stroke="#000000" points="221,-72.5 221,-102.5 474,-102.5 474,-72.5 221,-72.5"/>
<text text-anchor="start" x="228" y="-83.9" font-family="Arial" font-size="14.00" fill="#000000">user_timezone </text>
<text text-anchor="start" x="323.6872" y="-83.9" font-family="Arial" font-size="14.00" fill="#666666">[varchar(64)]</text>
<polygon fill="none" stroke="#000000" points="221,-42.5 221,-72.5 474,-72.5 474,-42.5 221,-42.5"/>
<text text-anchor="start" x="228" y="-53.9" font-family="Arial" font-size="14.00" fill="#000000">expired_at </text>
<text text-anchor="start" x="297.244" y="-53.9" font-family="Arial" font-size="14.00" fill="#666666">[timestamp with time zone]</text>
</g>
<!-- public.account_contact&#45;&gt;public.accounts -->
<g id="edge1" class="edge">
<title>public.account_contact:account_id&#45;&gt;public.accounts:id</title>
<path fill="none" stroke="#000000" d="M368.8153,-545.9338C342.2225,-536.5207 358.3786,-486.8669 379,-457 404.6543,-419.8439 448.3457,-458.1561 474,-421 497.6108,-386.8036 515.5556,-327.5 474,-327.5"/>
<polygon fill="#000000" stroke="#000000" points="369.1162,-545.98 378.316,-551.9477 374.0581,-546.74 379,-547.5 379,-547.5 379,-547.5 374.0581,-546.74 379.684,-543.0523 369.1162,-545.98 369.1162,-545.98"/>
<text text-anchor="start" x="7.4855" y="-557.5" font-family="Arial" font-size="10.00" fill="#000000">FOREIGN KEY (account_id) REFERENCES accounts(id) ON DELETE CASCADE</text>
</g>
<!-- public.contacts -->
<g id="node3" class="node">
<title>public.contacts</title>
<polygon fill="#efefef" stroke="transparent" points="578,-312.5 578,-347.5 831,-347.5 831,-312.5 578,-312.5"/>
<polygon fill="none" stroke="#000000" points="578,-312.5 578,-347.5 831,-347.5 831,-312.5 578,-312.5"/>
<text text-anchor="start" x="596.357" y="-325.3" font-family="Arial Bold" font-size="18.00" fill="#000000">public.contacts</text>
<text text-anchor="start" x="715.3892" y="-325.3" font-family="Arial" font-size="14.00" fill="#000000"> </text>
<text text-anchor="start" x="719.2798" y="-325.3" font-family="Arial" font-size="14.00" fill="#666666">[BASE TABLE]</text>
<polygon fill="none" stroke="#000000" points="578,-282.5 578,-312.5 831,-312.5 831,-282.5 578,-282.5"/>
<text text-anchor="start" x="585" y="-293.9" font-family="Arial" font-size="14.00" fill="#000000">id </text>
<text text-anchor="start" x="599.7798" y="-293.9" font-family="Arial" font-size="14.00" fill="#666666">[bigint]</text>
<polygon fill="none" stroke="#000000" points="578,-252.5 578,-282.5 831,-282.5 831,-252.5 578,-252.5"/>
<text text-anchor="start" x="585" y="-263.9" font-family="Arial" font-size="14.00" fill="#000000">created_at </text>
<text text-anchor="start" x="655.028" y="-263.9" font-family="Arial" font-size="14.00" fill="#666666">[timestamp with time zone]</text>
<polygon fill="none" stroke="#000000" points="578,-222.5 578,-252.5 831,-252.5 831,-222.5 578,-222.5"/>
<text text-anchor="start" x="584.6915" y="-233.9" font-family="Arial" font-size="14.00" fill="#000000">updated_at </text>
<text text-anchor="start" x="658.6241" y="-233.9" font-family="Arial" font-size="14.00" fill="#666666">[timestamp with time zone]</text>
<polygon fill="none" stroke="#000000" points="578,-192.5 578,-222.5 831,-222.5 831,-192.5 578,-192.5"/>
<text text-anchor="start" x="585" y="-203.9" font-family="Arial" font-size="14.00" fill="#000000">name </text>
<text text-anchor="start" x="623.899" y="-203.9" font-family="Arial" font-size="14.00" fill="#666666">[varchar(255)]</text>
<polygon fill="none" stroke="#000000" points="578,-162.5 578,-192.5 831,-192.5 831,-162.5 578,-162.5"/>
<text text-anchor="start" x="585" y="-173.9" font-family="Arial" font-size="14.00" fill="#000000">address </text>
<text text-anchor="start" x="638.6816" y="-173.9" font-family="Arial" font-size="14.00" fill="#666666">[varchar(512)]</text>
<polygon fill="none" stroke="#000000" points="578,-132.5 578,-162.5 831,-162.5 831,-132.5 578,-132.5"/>
<text text-anchor="start" x="585" y="-143.9" font-family="Arial" font-size="14.00" fill="#000000">staying_min </text>
<text text-anchor="start" x="663.568" y="-143.9" font-family="Arial" font-size="14.00" fill="#666666">[integer]</text>
<polygon fill="none" stroke="#000000" points="578,-102.5 578,-132.5 831,-132.5 831,-102.5 578,-102.5"/>
<text text-anchor="start" x="585" y="-113.9" font-family="Arial" font-size="14.00" fill="#000000">start_time </text>
<text text-anchor="start" x="650.338" y="-113.9" font-family="Arial" font-size="14.00" fill="#666666">[time without time zone]</text>
<polygon fill="none" stroke="#000000" points="578,-72.5 578,-102.5 831,-102.5 831,-72.5 578,-72.5"/>
<text text-anchor="start" x="585" y="-83.9" font-family="Arial" font-size="14.00" fill="#000000">end_time </text>
<text text-anchor="start" x="646.4614" y="-83.9" font-family="Arial" font-size="14.00" fill="#666666">[time without time zone]</text>
</g>
<!-- public.account_contact&#45;&gt;public.contacts -->
<g id="edge2" class="edge">
<title>public.account_contact:contact_id&#45;&gt;public.contacts:id</title>
<path fill="none" stroke="#000000" d="M682.7431,-515.0029C695.4279,-506.3535 683.5129,-477.1047 673,-457 649.1769,-411.441 601.8231,-436.559 578,-391 558.744,-354.1751 536.4444,-297.5 578,-297.5"/>
<polygon fill="#000000" stroke="#000000" points="682.6869,-515.0173 671.8828,-513.1409 677.8435,-516.2586 673,-517.5 673,-517.5 673,-517.5 677.8435,-516.2586 674.1172,-521.8591 682.6869,-515.0173 682.6869,-515.0173"/>
<text text-anchor="start" x="680.2655" y="-527.5" font-family="Arial" font-size="10.00" fill="#000000">FOREIGN KEY (contact_id) REFERENCES contacts(id) ON DELETE CASCADE</text>
</g>
</g>
</svg>
