<?xml version="1.0" encoding="UTF-8" standalone="no"?>
<!DOCTYPE svg PUBLIC "-//W3C//DTD SVG 1.1//EN"
 "http://www.w3.org/Graphics/SVG/1.1/DTD/svg11.dtd">
<!-- Generated by graphviz version 2.40.1 (20161225.0304)
 -->
<!-- Title: public.accounts Pages: 1 -->
<svg width="724pt" height="742pt"
 viewBox="0.00 0.00 724.00 742.00" xmlns="http://www.w3.org/2000/svg" xmlns:xlink="http://www.w3.org/1999/xlink">
<g id="graph0" class="graph" transform="scale(1 1) rotate(0) translate(4 738)">
<title>public.accounts</title>
<polygon fill="#ffffff" stroke="transparent" points="-4,4 -4,-738 720,-738 720,4 -4,4"/>
<!-- public.accounts -->
<g id="node1" class="node">
<title>public.accounts</title>
<polygon fill="#efefef" stroke="transparent" points="399,-345.5 399,-380.5 652,-380.5 652,-345.5 399,-345.5"/>
<polygon fill="none" stroke="#000000" points="399,-345.5 399,-380.5 652,-380.5 652,-345.5 399,-345.5"/>
<text text-anchor="start" x="414.855" y="-358.3" font-family="Arial Bold" font-size="18.00" fill="#000000">public.accounts</text>
<text text-anchor="start" x="538.8912" y="-358.3" font-family="Arial" font-size="14.00" fill="#000000"> </text>
<text text-anchor="start" x="542.7818" y="-358.3" font-family="Arial" font-size="14.00" fill="#666666">[BASE TABLE]</text>
<polygon fill="none" stroke="#000000" points="399,-315.5 399,-345.5 652,-345.5 652,-315.5 399,-315.5"/>
<text text-anchor="start" x="406" y="-326.9" font-family="Arial" font-size="14.00" fill="#000000">id </text>
<text text-anchor="start" x="420.7798" y="-326.9" font-family="Arial" font-size="14.00" fill="#666666">[bigint]</text>
<polygon fill="none" stroke="#000000" points="399,-285.5 399,-315.5 652,-315.5 652,-285.5 399,-285.5"/>
<text text-anchor="start" x="406" y="-296.9" font-family="Arial" font-size="14.00" fill="#000000">created_at </text>
<text text-anchor="start" x="476.028" y="-296.9" font-family="Arial" font-size="14.00" fill="#666666">[timestamp with time zone]</text>
<polygon fill="none" stroke="#000000" points="399,-255.5 399,-285.5 652,-285.5 652,-255.5 399,-255.5"/>
<text text-anchor="start" x="405.6915" y="-266.9" font-family="Arial" font-size="14.00" fill="#000000">updated_at </text>
<text text-anchor="start" x="479.6241" y="-266.9" font-family="Arial" font-size="14.00" fill="#666666">[timestamp with time zone]</text>
<polygon fill="none" stroke="#000000" points="399,-225.5 399,-255.5 652,-255.5 652,-225.5 399,-225.5"/>
<text text-anchor="start" x="406" y="-236.9" font-family="Arial" font-size="14.00" fill="#000000">name </text>
<text text-anchor="start" x="444.899" y="-236.9" font-family="Arial" font-size="14.00" fill="#666666">[varchar(255)]</text>
<polygon fill="none" stroke="#000000" points="399,-195.5 399,-225.5 652,-225.5 652,-195.5 399,-195.5"/>
<text text-anchor="start" x="406" y="-206.9" font-family="Arial" font-size="14.00" fill="#000000">email </text>
<text text-anchor="start" x="443.3296" y="-206.9" font-family="Arial" font-size="14.00" fill="#666666">[varchar(255)]</text>
<polygon fill="none" stroke="#000000" points="399,-165.5 399,-195.5 652,-195.5 652,-165.5 399,-165.5"/>
<text text-anchor="start" x="406" y="-176.9" font-family="Arial" font-size="14.00" fill="#000000">picture </text>
<text text-anchor="start" x="451.8962" y="-176.9" font-family="Arial" font-size="14.00" fill="#666666">[varchar(1024)]</text>
<polygon fill="none" stroke="#000000" points="399,-135.5 399,-165.5 652,-165.5 652,-135.5 399,-135.5"/>
<text text-anchor="start" x="406" y="-146.9" font-family="Arial" font-size="14.00" fill="#000000">organization </text>
<text text-anchor="start" x="486.1332" y="-146.9" font-family="Arial" font-size="14.00" fill="#666666">[varchar(255)]</text>
<polygon fill="none" stroke="#000000" points="399,-105.5 399,-135.5 652,-135.5 652,-105.5 399,-105.5"/>
<text text-anchor="start" x="406" y="-116.9" font-family="Arial" font-size="14.00" fill="#000000">status </text>
<text text-anchor="start" x="447.237" y="-116.9" font-family="Arial" font-size="14.00" fill="#666666">[integer]</text>
<polygon fill="none" stroke="#000000" points="399,-75.5 399,-105.5 652,-105.5 652,-75.5 399,-75.5"/>
<text text-anchor="start" x="406" y="-86.9" font-family="Arial" font-size="14.00" fill="#000000">user_timezone </text>
<text text-anchor="start" x="501.6872" y="-86.9" font-family="Arial" font-size="14.00" fill="#666666">[varchar(64)]</text>
<polygon fill="none" stroke="#000000" points="399,-45.5 399,-75.5 652,-75.5 652,-45.5 399,-45.5"/>
<text text-anchor="start" x="406" y="-56.9" font-family="Arial" font-size="14.00" fill="#000000">expired_at </text>
<text text-anchor="start" x="475.244" y="-56.9" font-family="Arial" font-size="14.00" fill="#666666">[timestamp with time zone]</text>
<polygon fill="none" stroke="#000000" stroke-width="3" points="397,-44.5 397,-382.5 653,-382.5 653,-44.5 397,-44.5"/>
</g>
<!-- public.account_contact -->
<g id="node2" class="node">
<title>public.account_contact</title>
<polygon fill="#efefef" stroke="transparent" points="379,-655.5 379,-690.5 673,-690.5 673,-655.5 379,-655.5"/>
<polygon fill="none" stroke="#000000" points="379,-655.5 379,-690.5 673,-690.5 673,-655.5 379,-655.5"/>
<text text-anchor="start" x="385.8404" y="-668.3" font-family="Arial Bold" font-size="18.00" fill="#000000">public.account_contact</text>
<text text-anchor="start" x="568.9058" y="-668.3" font-family="Arial" font-size="14.00" fill="#000000"> </text>
<text text-anchor="start" x="572.7964" y="-668.3" font-family="Arial" font-size="14.00" fill="#666666">[BASE TABLE]</text>
<polygon fill="none" stroke="#000000" points="379,-625.5 379,-655.5 673,-655.5 673,-625.5 379,-625.5"/>
<text text-anchor="start" x="386" y="-636.9" font-family="Arial" font-size="14.00" fill="#000000">id </text>
<text text-anchor="start" x="400.7798" y="-636.9" font-family="Arial" font-size="14.00" fill="#666666">[bigint]</text>
<polygon fill="none" stroke="#000000" points="379,-595.5 379,-625.5 673,-625.5 673,-595.5 379,-595.5"/>
<text text-anchor="start" x="386" y="-606.9" font-family="Arial" font-size="14.00" fill="#000000">created_at </text>
<text text-anchor="start" x="456.028" y="-606.9" font-family="Arial" font-size="14.00" fill="#666666">[timestamp with time zone]</text>
<polygon fill="none" stroke="#000000" points="379,-565.5 379,-595.5 673,-595.5 673,-565.5 379,-565.5"/>
<text text-anchor="start" x="386" y="-576.9" font-family="Arial" font-size="14.00" fill="#000000">updated_at </text>
<text text-anchor="start" x="459.9326" y="-576.9" font-family="Arial" font-size="14.00" fill="#666666">[timestamp with time zone]</text>
<polygon fill="none" stroke="#000000" points="379,-535.5 379,-565.5 673,-565.5 673,-535.5 379,-535.5"/>
<text text-anchor="start" x="386" y="-546.9" font-family="Arial" font-size="14.00" fill="#000000">account_id </text>
<text text-anchor="start" x="457.5834" y="-546.9" font-family="Arial" font-size="14.00" fill="#666666">[bigint]</text>
<polygon fill="none" stroke="#000000" points="379,-505.5 379,-535.5 673,-535.5 673,-505.5 379,-505.5"/>
<text text-anchor="start" x="386" y="-516.9" font-family="Arial" font-size="14.00" fill="#000000">contact_id </text>
<text text-anchor="start" x="453.6914" y="-516.9" font-family="Arial" font-size="14.00" fill="#666666">[bigint]</text>
</g>
<!-- public.account_contact&#45;&gt;public.accounts -->
<g id="edge1" class="edge">
<title>public.account_contact:account_id&#45;&gt;public.accounts:id</title>
<path fill="none" stroke="#000000" d="M369.0615,-548.9145C342.8173,-539.398 355.8656,-489.3854 379,-463 459.6834,-370.9785 571.3166,-519.0215 652,-427 680.2752,-394.7514 694.8889,-330.5 652,-330.5"/>
<polygon fill="#000000" stroke="#000000" points="369.1249,-548.9245 378.291,-554.9438 374.0624,-549.7123 379,-550.5 379,-550.5 379,-550.5 374.0624,-549.7123 379.709,-546.0562 369.1249,-548.9245 369.1249,-548.9245"/>
<text text-anchor="start" x="7.4855" y="-560.5" font-family="Arial" font-size="10.00" fill="#000000">FOREIGN KEY (account_id) REFERENCES accounts(id) ON DELETE CASCADE</text>
</g>
</g>
</svg>
