<?xml version="1.0" encoding="UTF-8" standalone="no"?>
<!DOCTYPE svg PUBLIC "-//W3C//DTD SVG 1.1//EN"
 "http://www.w3.org/Graphics/SVG/1.1/DTD/svg11.dtd">
<!-- Generated by graphviz version 2.40.1 (20161225.0304)
 -->
<!-- Title: public.contacts Pages: 1 -->
<svg width="571pt" height="682pt"
 viewBox="0.00 0.00 571.00 682.00" xmlns="http://www.w3.org/2000/svg" xmlns:xlink="http://www.w3.org/1999/xlink">
<g id="graph0" class="graph" transform="scale(1 1) rotate(0) translate(4 678)">
<title>public.contacts</title>
<polygon fill="#ffffff" stroke="transparent" points="-4,4 -4,-678 567,-678 567,4 -4,4"/>
<!-- public.contacts -->
<g id="node1" class="node">
<title>public.contacts</title>
<polygon fill="#efefef" stroke="transparent" points="246,-285.5 246,-320.5 499,-320.5 499,-285.5 246,-285.5"/>
<polygon fill="none" stroke="#000000" points="246,-285.5 246,-320.5 499,-320.5 499,-285.5 246,-285.5"/>
<text text-anchor="start" x="264.357" y="-298.3" font-family="Arial Bold" font-size="18.00" fill="#000000">public.contacts</text>
<text text-anchor="start" x="383.3892" y="-298.3" font-family="Arial" font-size="14.00" fill="#000000"> </text>
<text text-anchor="start" x="387.2798" y="-298.3" font-family="Arial" font-size="14.00" fill="#666666">[BASE TABLE]</text>
<polygon fill="none" stroke="#000000" points="246,-255.5 246,-285.5 499,-285.5 499,-255.5 246,-255.5"/>
<text text-anchor="start" x="253" y="-266.9" font-family="Arial" font-size="14.00" fill="#000000">id </text>
<text text-anchor="start" x="267.7798" y="-266.9" font-family="Arial" font-size="14.00" fill="#666666">[bigint]</text>
<polygon fill="none" stroke="#000000" points="246,-225.5 246,-255.5 499,-255.5 499,-225.5 246,-225.5"/>
<text text-anchor="start" x="253" y="-236.9" font-family="Arial" font-size="14.00" fill="#000000">created_at </text>
<text text-anchor="start" x="323.028" y="-236.9" font-family="Arial" font-size="14.00" fill="#666666">[timestamp with time zone]</text>
<polygon fill="none" stroke="#000000" points="246,-195.5 246,-225.5 499,-225.5 499,-195.5 246,-195.5"/>
<text text-anchor="start" x="252.6915" y="-206.9" font-family="Arial" font-size="14.00" fill="#000000">updated_at </text>
<text text-anchor="start" x="326.6241" y="-206.9" font-family="Arial" font-size="14.00" fill="#666666">[timestamp with time zone]</text>
<polygon fill="none" stroke="#000000" points="246,-165.5 246,-195.5 499,-195.5 499,-165.5 246,-165.5"/>
<text text-anchor="start" x="253" y="-176.9" font-family="Arial" font-size="14.00" fill="#000000">name </text>
<text text-anchor="start" x="291.899" y="-176.9" font-family="Arial" font-size="14.00" fill="#666666">[varchar(255)]</text>
<polygon fill="none" stroke="#000000" points="246,-135.5 246,-165.5 499,-165.5 499,-135.5 246,-135.5"/>
<text text-anchor="start" x="253" y="-146.9" font-family="Arial" font-size="14.00" fill="#000000">address </text>
<text text-anchor="start" x="306.6816" y="-146.9" font-family="Arial" font-size="14.00" fill="#666666">[varchar(512)]</text>
<polygon fill="none" stroke="#000000" points="246,-105.5 246,-135.5 499,-135.5 499,-105.5 246,-105.5"/>
<text text-anchor="start" x="253" y="-116.9" font-family="Arial" font-size="14.00" fill="#000000">staying_min </text>
<text text-anchor="start" x="331.568" y="-116.9" font-family="Arial" font-size="14.00" fill="#666666">[integer]</text>
<polygon fill="none" stroke="#000000" points="246,-75.5 246,-105.5 499,-105.5 499,-75.5 246,-75.5"/>
<text text-anchor="start" x="253" y="-86.9" font-family="Arial" font-size="14.00" fill="#000000">start_time </text>
<text text-anchor="start" x="318.338" y="-86.9" font-family="Arial" font-size="14.00" fill="#666666">[time without time zone]</text>
<polygon fill="none" stroke="#000000" points="246,-45.5 246,-75.5 499,-75.5 499,-45.5 246,-45.5"/>
<text text-anchor="start" x="253" y="-56.9" font-family="Arial" font-size="14.00" fill="#000000">end_time </text>
<text text-anchor="start" x="314.4614" y="-56.9" font-family="Arial" font-size="14.00" fill="#666666">[time without time zone]</text>
<polygon fill="none" stroke="#000000" stroke-width="3" points="244,-44.5 244,-322.5 500,-322.5 500,-44.5 244,-44.5"/>
</g>
<!-- public.account_contact -->
<g id="node2" class="node">
<title>public.account_contact</title>
<polygon fill="#efefef" stroke="transparent" points="226,-595.5 226,-630.5 520,-630.5 520,-595.5 226,-595.5"/>
<polygon fill="none" stroke="#000000" points="226,-595.5 226,-630.5 520,-630.5 520,-595.5 226,-595.5"/>
<text text-anchor="start" x="232.8404" y="-608.3" font-family="Arial Bold" font-size="18.00" fill="#000000">public.account_contact</text>
<text text-anchor="start" x="415.9058" y="-608.3" font-family="Arial" font-size="14.00" fill="#000000"> </text>
<text text-anchor="start" x="419.7964" y="-608.3" font-family="Arial" font-size="14.00" fill="#666666">[BASE TABLE]</text>
<polygon fill="none" stroke="#000000" points="226,-565.5 226,-595.5 520,-595.5 520,-565.5 226,-565.5"/>
<text text-anchor="start" x="233" y="-576.9" font-family="Arial" font-size="14.00" fill="#000000">id </text>
<text text-anchor="start" x="247.7798" y="-576.9" font-family="Arial" font-size="14.00" fill="#666666">[bigint]</text>
<polygon fill="none" stroke="#000000" points="226,-535.5 226,-565.5 520,-565.5 520,-535.5 226,-535.5"/>
<text text-anchor="start" x="233" y="-546.9" font-family="Arial" font-size="14.00" fill="#000000">created_at </text>
<text text-anchor="start" x="303.028" y="-546.9" font-family="Arial" font-size="14.00" fill="#666666">[timestamp with time zone]</text>
<polygon fill="none" stroke="#000000" points="226,-505.5 226,-535.5 520,-535.5 520,-505.5 226,-505.5"/>
<text text-anchor="start" x="233" y="-516.9" font-family="Arial" font-size="14.00" fill="#000000">updated_at </text>
<text text-anchor="start" x="306.9326" y="-516.9" font-family="Arial" font-size="14.00" fill="#666666">[timestamp with time zone]</text>
<polygon fill="none" stroke="#000000" points="226,-475.5 226,-505.5 520,-505.5 520,-475.5 226,-475.5"/>
<text text-anchor="start" x="233" y="-486.9" font-family="Arial" font-size="14.00" fill="#000000">account_id </text>
<text text-anchor="start" x="304.5834" y="-486.9" font-family="Arial" font-size="14.00" fill="#666666">[bigint]</text>
<polygon fill="none" stroke="#000000" points="226,-445.5 226,-475.5 520,-475.5 520,-445.5 226,-445.5"/>
<text text-anchor="start" x="233" y="-456.9" font-family="Arial" font-size="14.00" fill="#000000">contact_id </text>
<text text-anchor="start" x="300.6914" y="-456.9" font-family="Arial" font-size="14.00" fill="#666666">[bigint]</text>
</g>
<!-- public.account_contact&#45;&gt;public.contacts -->
<g id="edge1" class="edge">
<title>public.account_contact:contact_id&#45;&gt;public.contacts:id</title>
<path fill="none" stroke="#000000" d="M373.8761,-435.3195C383.4468,-384.3073 468.7882,-421.4179 499,-367 519.818,-329.5024 541.8889,-270.5 499,-270.5"/>
<polygon fill="#000000" stroke="#000000" points="373.8575,-435.5368 368.5166,-445.1141 373.4288,-440.5184 373,-445.5 373,-445.5 373,-445.5 373.4288,-440.5184 377.4834,-445.8859 373.8575,-435.5368 373.8575,-435.5368"/>
<text text-anchor="start" x="7.2655" y="-455.5" font-family="Arial" font-size="10.00" fill="#000000">FOREIGN KEY (contact_id) REFERENCES contacts(id) ON DELETE CASCADE</text>
</g>
</g>
</svg>
