<?xml version="1.0" encoding="UTF-8" standalone="no"?>
<!DOCTYPE svg PUBLIC "-//W3C//DTD SVG 1.1//EN"
 "http://www.w3.org/Graphics/SVG/1.1/DTD/svg11.dtd">
<!-- Generated by graphviz version 2.40.1 (20161225.0304)
 -->
<!-- Title: db Pages: 1 -->
<svg width="1138pt" height="736pt"
 viewBox="0.00 0.00 1138.00 736.00" xmlns="http://www.w3.org/2000/svg" xmlns:xlink="http://www.w3.org/1999/xlink">
<g id="graph0" class="graph" transform="scale(1 1) rotate(0) translate(4 732)">
<title>db</title>
<polygon fill="#ffffff" stroke="transparent" points="-4,4 -4,-732 1134,-732 1134,4 -4,4"/>
<!-- public.goose_db_version -->
<g id="node1" class="node">
<title>public.goose_db_version</title>
<polygon fill="#efefef" stroke="transparent" points="43,-634.5 43,-669.5 353,-669.5 353,-634.5 43,-634.5"/>
<polygon fill="none" stroke="#000000" points="43,-634.5 43,-669.5 353,-669.5 353,-634.5 43,-634.5"/>
<text text-anchor="start" x="49.8412" y="-647.3" font-family="Arial Bold" font-size="18.00" fill="#000000">public.goose_db_version</text>
<text text-anchor="start" x="248.905" y="-647.3" font-family="Arial" font-size="14.00" fill="#000000"> </text>
<text text-anchor="start" x="252.7956" y="-647.3" font-family="Arial" font-size="14.00" fill="#666666">[BASE TABLE]</text>
<polygon fill="none" stroke="#000000" points="43,-604.5 43,-634.5 353,-634.5 353,-604.5 43,-604.5"/>
<text text-anchor="start" x="50" y="-615.9" font-family="Arial" font-size="14.00" fill="#000000">id </text>
<text text-anchor="start" x="64.7798" y="-615.9" font-family="Arial" font-size="14.00" fill="#666666">[integer]</text>
<polygon fill="none" stroke="#000000" points="43,-574.5 43,-604.5 353,-604.5 353,-574.5 43,-574.5"/>
<text text-anchor="start" x="50" y="-585.9" font-family="Arial" font-size="14.00" fill="#000000">version_id </text>
<text text-anchor="start" x="117.6774" y="-585.9" font-family="Arial" font-size="14.00" fill="#666666">[bigint]</text>
<polygon fill="none" stroke="#000000" points="43,-544.5 43,-574.5 353,-574.5 353,-544.5 43,-544.5"/>
<text text-anchor="start" x="50" y="-555.9" font-family="Arial" font-size="14.00" fill="#000000">is_applied </text>
<text text-anchor="start" x="116.906" y="-555.9" font-family="Arial" font-size="14.00" fill="#666666">[boolean]</text>
<polygon fill="none" stroke="#000000" points="43,-514.5 43,-544.5 353,-544.5 353,-514.5 43,-514.5"/>
<text text-anchor="start" x="50" y="-525.9" font-family="Arial" font-size="14.00" fill="#000000">tstamp </text>
<text text-anchor="start" x="95.8976" y="-525.9" font-family="Arial" font-size="14.00" fill="#666666">[timestamp without time zone]</text>
</g>
<!-- public.contacts -->
<g id="node2" class="node">
<title>public.contacts</title>
<polygon fill="#efefef" stroke="transparent" points="298,-312.5 298,-347.5 551,-347.5 551,-312.5 298,-312.5"/>
<polygon fill="none" stroke="#000000" points="298,-312.5 298,-347.5 551,-347.5 551,-312.5 298,-312.5"/>
<text text-anchor="start" x="316.357" y="-325.3" font-family="Arial Bold" font-size="18.00" fill="#000000">public.contacts</text>
<text text-anchor="start" x="435.3892" y="-325.3" font-family="Arial" font-size="14.00" fill="#000000"> </text>
<text text-anchor="start" x="439.2798" y="-325.3" font-family="Arial" font-size="14.00" fill="#666666">[BASE TABLE]</text>
<polygon fill="none" stroke="#000000" points="298,-282.5 298,-312.5 551,-312.5 551,-282.5 298,-282.5"/>
<text text-anchor="start" x="305" y="-293.9" font-family="Arial" font-size="14.00" fill="#000000">id </text>
<text text-anchor="start" x="319.7798" y="-293.9" font-family="Arial" font-size="14.00" fill="#666666">[bigint]</text>
<polygon fill="none" stroke="#000000" points="298,-252.5 298,-282.5 551,-282.5 551,-252.5 298,-252.5"/>
<text text-anchor="start" x="305" y="-263.9" font-family="Arial" font-size="14.00" fill="#000000">created_at </text>
<text text-anchor="start" x="375.028" y="-263.9" font-family="Arial" font-size="14.00" fill="#666666">[timestamp with time zone]</text>
<polygon fill="none" stroke="#000000" points="298,-222.5 298,-252.5 551,-252.5 551,-222.5 298,-222.5"/>
<text text-anchor="start" x="304.6915" y="-233.9" font-family="Arial" font-size="14.00" fill="#000000">updated_at </text>
<text text-anchor="start" x="378.6241" y="-233.9" font-family="Arial" font-size="14.00" fill="#666666">[timestamp with time zone]</text>
<polygon fill="none" stroke="#000000" points="298,-192.5 298,-222.5 551,-222.5 551,-192.5 298,-192.5"/>
<text text-anchor="start" x="305" y="-203.9" font-family="Arial" font-size="14.00" fill="#000000">name </text>
<text text-anchor="start" x="343.899" y="-203.9" font-family="Arial" font-size="14.00" fill="#666666">[varchar(255)]</text>
<polygon fill="none" stroke="#000000" points="298,-162.5 298,-192.5 551,-192.5 551,-162.5 298,-162.5"/>
<text text-anchor="start" x="305" y="-173.9" font-family="Arial" font-size="14.00" fill="#000000">address </text>
<text text-anchor="start" x="358.6816" y="-173.9" font-family="Arial" font-size="14.00" fill="#666666">[varchar(512)]</text>
<polygon fill="none" stroke="#000000" points="298,-132.5 298,-162.5 551,-162.5 551,-132.5 298,-132.5"/>
<text text-anchor="start" x="305" y="-143.9" font-family="Arial" font-size="14.00" fill="#000000">staying_min </text>
<text text-anchor="start" x="383.568" y="-143.9" font-family="Arial" font-size="14.00" fill="#666666">[integer]</text>
<polygon fill="none" stroke="#000000" points="298,-102.5 298,-132.5 551,-132.5 551,-102.5 298,-102.5"/>
<text text-anchor="start" x="305" y="-113.9" font-family="Arial" font-size="14.00" fill="#000000">start_time </text>
<text text-anchor="start" x="370.338" y="-113.9" font-family="Arial" font-size="14.00" fill="#666666">[time without time zone]</text>
<polygon fill="none" stroke="#000000" points="298,-72.5 298,-102.5 551,-102.5 551,-72.5 298,-72.5"/>
<text text-anchor="start" x="305" y="-83.9" font-family="Arial" font-size="14.00" fill="#000000">end_time </text>
<text text-anchor="start" x="366.4614" y="-83.9" font-family="Arial" font-size="14.00" fill="#666666">[time without time zone]</text>
</g>
<!-- public.accounts -->
<g id="node3" class="node">
<title>public.accounts</title>
<polygon fill="#efefef" stroke="transparent" points="655,-342.5 655,-377.5 908,-377.5 908,-342.5 655,-342.5"/>
<polygon fill="none" stroke="#000000" points="655,-342.5 655,-377.5 908,-377.5 908,-342.5 655,-342.5"/>
<text text-anchor="start" x="670.855" y="-355.3" font-family="Arial Bold" font-size="18.00" fill="#000000">public.accounts</text>
<text text-anchor="start" x="794.8912" y="-355.3" font-family="Arial" font-size="14.00" fill="#000000"> </text>
<text text-anchor="start" x="798.7818" y="-355.3" font-family="Arial" font-size="14.00" fill="#666666">[BASE TABLE]</text>
<polygon fill="none" stroke="#000000" points="655,-312.5 655,-342.5 908,-342.5 908,-312.5 655,-312.5"/>
<text text-anchor="start" x="662" y="-323.9" font-family="Arial" font-size="14.00" fill="#000000">id </text>
<text text-anchor="start" x="676.7798" y="-323.9" font-family="Arial" font-size="14.00" fill="#666666">[bigint]</text>
<polygon fill="none" stroke="#000000" points="655,-282.5 655,-312.5 908,-312.5 908,-282.5 655,-282.5"/>
<text text-anchor="start" x="662" y="-293.9" font-family="Arial" font-size="14.00" fill="#000000">created_at </text>
<text text-anchor="start" x="732.028" y="-293.9" font-family="Arial" font-size="14.00" fill="#666666">[timestamp with time zone]</text>
<polygon fill="none" stroke="#000000" points="655,-252.5 655,-282.5 908,-282.5 908,-252.5 655,-252.5"/>
<text text-anchor="start" x="661.6915" y="-263.9" font-family="Arial" font-size="14.00" fill="#000000">updated_at </text>
<text text-anchor="start" x="735.6241" y="-263.9" font-family="Arial" font-size="14.00" fill="#666666">[timestamp with time zone]</text>
<polygon fill="none" stroke="#000000" points="655,-222.5 655,-252.5 908,-252.5 908,-222.5 655,-222.5"/>
<text text-anchor="start" x="662" y="-233.9" font-family="Arial" font-size="14.00" fill="#000000">name </text>
<text text-anchor="start" x="700.899" y="-233.9" font-family="Arial" font-size="14.00" fill="#666666">[varchar(255)]</text>
<polygon fill="none" stroke="#000000" points="655,-192.5 655,-222.5 908,-222.5 908,-192.5 655,-192.5"/>
<text text-anchor="start" x="662" y="-203.9" font-family="Arial" font-size="14.00" fill="#000000">email </text>
<text text-anchor="start" x="699.3296" y="-203.9" font-family="Arial" font-size="14.00" fill="#666666">[varchar(255)]</text>
<polygon fill="none" stroke="#000000" points="655,-162.5 655,-192.5 908,-192.5 908,-162.5 655,-162.5"/>
<text text-anchor="start" x="662" y="-173.9" font-family="Arial" font-size="14.00" fill="#000000">picture </text>
<text text-anchor="start" x="707.8962" y="-173.9" font-family="Arial" font-size="14.00" fill="#666666">[varchar(1024)]</text>
<polygon fill="none" stroke="#000000" points="655,-132.5 655,-162.5 908,-162.5 908,-132.5 655,-132.5"/>
<text text-anchor="start" x="662" y="-143.9" font-family="Arial" font-size="14.00" fill="#000000">organization </text>
<text text-anchor="start" x="742.1332" y="-143.9" font-family="Arial" font-size="14.00" fill="#666666">[varchar(255)]</text>
<polygon fill="none" stroke="#000000" points="655,-102.5 655,-132.5 908,-132.5 908,-102.5 655,-102.5"/>
<text text-anchor="start" x="662" y="-113.9" font-family="Arial" font-size="14.00" fill="#000000">status </text>
<text text-anchor="start" x="703.237" y="-113.9" font-family="Arial" font-size="14.00" fill="#666666">[integer]</text>
<polygon fill="none" stroke="#000000" points="655,-72.5 655,-102.5 908,-102.5 908,-72.5 655,-72.5"/>
<text text-anchor="start" x="662" y="-83.9" font-family="Arial" font-size="14.00" fill="#000000">user_timezone </text>
<text text-anchor="start" x="757.6872" y="-83.9" font-family="Arial" font-size="14.00" fill="#666666">[varchar(64)]</text>
<polygon fill="none" stroke="#000000" points="655,-42.5 655,-72.5 908,-72.5 908,-42.5 655,-42.5"/>
<text text-anchor="start" x="662" y="-53.9" font-family="Arial" font-size="14.00" fill="#000000">expired_at </text>
<text text-anchor="start" x="731.244" y="-53.9" font-family="Arial" font-size="14.00" fill="#666666">[timestamp with time zone]</text>
</g>
<!-- public.account_contact -->
<g id="node4" class="node">
<title>public.account_contact</title>
<polygon fill="#efefef" stroke="transparent" points="457,-649.5 457,-684.5 751,-684.5 751,-649.5 457,-649.5"/>
<polygon fill="none" stroke="#000000" points="457,-649.5 457,-684.5 751,-684.5 751,-649.5 457,-649.5"/>
<text text-anchor="start" x="463.8404" y="-662.3" font-family="Arial Bold" font-size="18.00" fill="#000000">public.account_contact</text>
<text text-anchor="start" x="646.9058" y="-662.3" font-family="Arial" font-size="14.00" fill="#000000"> </text>
<text text-anchor="start" x="650.7964" y="-662.3" font-family="Arial" font-size="14.00" fill="#666666">[BASE TABLE]</text>
<polygon fill="none" stroke="#000000" points="457,-619.5 457,-649.5 751,-649.5 751,-619.5 457,-619.5"/>
<text text-anchor="start" x="464" y="-630.9" font-family="Arial" font-size="14.00" fill="#000000">id </text>
<text text-anchor="start" x="478.7798" y="-630.9" font-family="Arial" font-size="14.00" fill="#666666">[bigint]</text>
<polygon fill="none" stroke="#000000" points="457,-589.5 457,-619.5 751,-619.5 751,-589.5 457,-589.5"/>
<text text-anchor="start" x="464" y="-600.9" font-family="Arial" font-size="14.00" fill="#000000">created_at </text>
<text text-anchor="start" x="534.028" y="-600.9" font-family="Arial" font-size="14.00" fill="#666666">[timestamp with time zone]</text>
<polygon fill="none" stroke="#000000" points="457,-559.5 457,-589.5 751,-589.5 751,-559.5 457,-559.5"/>
<text text-anchor="start" x="464" y="-570.9" font-family="Arial" font-size="14.00" fill="#000000">updated_at </text>
<text text-anchor="start" x="537.9326" y="-570.9" font-family="Arial" font-size="14.00" fill="#666666">[timestamp with time zone]</text>
<polygon fill="none" stroke="#000000" points="457,-529.5 457,-559.5 751,-559.5 751,-529.5 457,-529.5"/>
<text text-anchor="start" x="464" y="-540.9" font-family="Arial" font-size="14.00" fill="#000000">account_id </text>
<text text-anchor="start" x="535.5834" y="-540.9" font-family="Arial" font-size="14.00" fill="#666666">[bigint]</text>
<polygon fill="none" stroke="#000000" points="457,-499.5 457,-529.5 751,-529.5 751,-499.5 457,-499.5"/>
<text text-anchor="start" x="464" y="-510.9" font-family="Arial" font-size="14.00" fill="#000000">contact_id </text>
<text text-anchor="start" x="531.6914" y="-510.9" font-family="Arial" font-size="14.00" fill="#666666">[bigint]</text>
</g>
<!-- public.account_contact&#45;&gt;public.contacts -->
<g id="edge1" class="edge">
<title>public.account_contact:contact_id&#45;&gt;public.contacts:id</title>
<path fill="none" stroke="#000000" d="M447.0983,-511.6523C436.1192,-502.888 447.24,-475.7783 457,-457 480.5419,-411.7053 527.4581,-436.2947 551,-391 570.1645,-354.1274 592.5556,-297.5 551,-297.5"/>
<polygon fill="#000000" stroke="#000000" points="447.3896,-511.736 455.7562,-518.8247 452.1948,-513.118 457,-514.5 457,-514.5 457,-514.5 452.1948,-513.118 458.2438,-510.1753 447.3896,-511.736 447.3896,-511.736"/>
<text text-anchor="start" x="464.2655" y="-524.5" font-family="Arial" font-size="10.00" fill="#000000">FOREIGN KEY (contact_id) REFERENCES contacts(id) ON DELETE CASCADE</text>
</g>
<!-- public.account_contact&#45;&gt;public.accounts -->
<g id="edge2" class="edge">
<title>public.account_contact:account_id&#45;&gt;public.accounts:id</title>
<path fill="none" stroke="#000000" d="M761.1802,-542.8643C786.4332,-533.4624 770.9012,-485.7175 751,-457 725.0447,-419.5465 680.9553,-458.4535 655,-421 631.3302,-386.8444 613.4444,-327.5 655,-327.5"/>
<polygon fill="#000000" stroke="#000000" points="760.8734,-542.9135 750.2861,-540.057 755.9367,-543.7068 751,-544.5 751,-544.5 751,-544.5 755.9367,-543.7068 751.7139,-548.943 760.8734,-542.9135 760.8734,-542.9135"/>
<text text-anchor="start" x="758.4855" y="-554.5" font-family="Arial" font-size="10.00" fill="#000000">FOREIGN KEY (account_id) REFERENCES accounts(id) ON DELETE CASCADE</text>
</g>
</g>
</svg>
