<?xml version="1.0" encoding="UTF-8" standalone="no"?>
<!DOCTYPE svg PUBLIC "-//W3C//DTD SVG 1.1//EN"
 "http://www.w3.org/Graphics/SVG/1.1/DTD/svg11.dtd">
<!-- Generated by graphviz version 2.40.1 (20161225.0304)
 -->
<!-- Title: db Pages: 1 -->
<svg width="3828pt" height="916pt"
 viewBox="0.00 0.00 3828.00 916.00" xmlns="http://www.w3.org/2000/svg" xmlns:xlink="http://www.w3.org/1999/xlink">
<g id="graph0" class="graph" transform="scale(1 1) rotate(0) translate(4 912)">
<title>db</title>
<polygon fill="#ffffff" stroke="transparent" points="-4,4 -4,-912 3824,-912 3824,4 -4,4"/>
<!-- public.goose_db_version -->
<g id="node1" class="node">
<title>public.goose_db_version</title>
<polygon fill="#efefef" stroke="transparent" points="43,-739.5 43,-774.5 353,-774.5 353,-739.5 43,-739.5"/>
<polygon fill="none" stroke="#000000" points="43,-739.5 43,-774.5 353,-774.5 353,-739.5 43,-739.5"/>
<text text-anchor="start" x="49.8412" y="-752.3" font-family="Arial Bold" font-size="18.00" fill="#000000">public.goose_db_version</text>
<text text-anchor="start" x="248.905" y="-752.3" font-family="Arial" font-size="14.00" fill="#000000"> </text>
<text text-anchor="start" x="252.7956" y="-752.3" font-family="Arial" font-size="14.00" fill="#666666">[BASE TABLE]</text>
<polygon fill="none" stroke="#000000" points="43,-709.5 43,-739.5 353,-739.5 353,-709.5 43,-709.5"/>
<text text-anchor="start" x="50" y="-720.9" font-family="Arial" font-size="14.00" fill="#000000">id </text>
<text text-anchor="start" x="64.7798" y="-720.9" font-family="Arial" font-size="14.00" fill="#666666">[integer]</text>
<polygon fill="none" stroke="#000000" points="43,-679.5 43,-709.5 353,-709.5 353,-679.5 43,-679.5"/>
<text text-anchor="start" x="50" y="-690.9" font-family="Arial" font-size="14.00" fill="#000000">version_id </text>
<text text-anchor="start" x="117.6774" y="-690.9" font-family="Arial" font-size="14.00" fill="#666666">[bigint]</text>
<polygon fill="none" stroke="#000000" points="43,-649.5 43,-679.5 353,-679.5 353,-649.5 43,-649.5"/>
<text text-anchor="start" x="50" y="-660.9" font-family="Arial" font-size="14.00" fill="#000000">is_applied </text>
<text text-anchor="start" x="116.906" y="-660.9" font-family="Arial" font-size="14.00" fill="#666666">[boolean]</text>
<polygon fill="none" stroke="#000000" points="43,-619.5 43,-649.5 353,-649.5 353,-619.5 43,-619.5"/>
<text text-anchor="start" x="50" y="-630.9" font-family="Arial" font-size="14.00" fill="#000000">tstamp </text>
<text text-anchor="start" x="95.8976" y="-630.9" font-family="Arial" font-size="14.00" fill="#666666">[timestamp without time zone]</text>
</g>
<!-- public.contacts -->
<g id="node2" class="node">
<title>public.contacts</title>
<polygon fill="#efefef" stroke="transparent" points="299,-327.5 299,-362.5 552,-362.5 552,-327.5 299,-327.5"/>
<polygon fill="none" stroke="#000000" points="299,-327.5 299,-362.5 552,-362.5 552,-327.5 299,-327.5"/>
<text text-anchor="start" x="317.357" y="-340.3" font-family="Arial Bold" font-size="18.00" fill="#000000">public.contacts</text>
<text text-anchor="start" x="436.3892" y="-340.3" font-family="Arial" font-size="14.00" fill="#000000"> </text>
<text text-anchor="start" x="440.2798" y="-340.3" font-family="Arial" font-size="14.00" fill="#666666">[BASE TABLE]</text>
<polygon fill="none" stroke="#000000" points="299,-297.5 299,-327.5 552,-327.5 552,-297.5 299,-297.5"/>
<text text-anchor="start" x="306" y="-308.9" font-family="Arial" font-size="14.00" fill="#000000">id </text>
<text text-anchor="start" x="320.7798" y="-308.9" font-family="Arial" font-size="14.00" fill="#666666">[bigint]</text>
<polygon fill="none" stroke="#000000" points="299,-267.5 299,-297.5 552,-297.5 552,-267.5 299,-267.5"/>
<text text-anchor="start" x="306" y="-278.9" font-family="Arial" font-size="14.00" fill="#000000">created_at </text>
<text text-anchor="start" x="376.028" y="-278.9" font-family="Arial" font-size="14.00" fill="#666666">[timestamp with time zone]</text>
<polygon fill="none" stroke="#000000" points="299,-237.5 299,-267.5 552,-267.5 552,-237.5 299,-237.5"/>
<text text-anchor="start" x="305.6915" y="-248.9" font-family="Arial" font-size="14.00" fill="#000000">updated_at </text>
<text text-anchor="start" x="379.6241" y="-248.9" font-family="Arial" font-size="14.00" fill="#666666">[timestamp with time zone]</text>
<polygon fill="none" stroke="#000000" points="299,-207.5 299,-237.5 552,-237.5 552,-207.5 299,-207.5"/>
<text text-anchor="start" x="306" y="-218.9" font-family="Arial" font-size="14.00" fill="#000000">name </text>
<text text-anchor="start" x="344.899" y="-218.9" font-family="Arial" font-size="14.00" fill="#666666">[varchar(255)]</text>
<polygon fill="none" stroke="#000000" points="299,-177.5 299,-207.5 552,-207.5 552,-177.5 299,-177.5"/>
<text text-anchor="start" x="306" y="-188.9" font-family="Arial" font-size="14.00" fill="#000000">address </text>
<text text-anchor="start" x="359.6816" y="-188.9" font-family="Arial" font-size="14.00" fill="#666666">[varchar(512)]</text>
<polygon fill="none" stroke="#000000" points="299,-147.5 299,-177.5 552,-177.5 552,-147.5 299,-147.5"/>
<text text-anchor="start" x="306" y="-158.9" font-family="Arial" font-size="14.00" fill="#000000">staying_min </text>
<text text-anchor="start" x="384.568" y="-158.9" font-family="Arial" font-size="14.00" fill="#666666">[integer]</text>
<polygon fill="none" stroke="#000000" points="299,-117.5 299,-147.5 552,-147.5 552,-117.5 299,-117.5"/>
<text text-anchor="start" x="306" y="-128.9" font-family="Arial" font-size="14.00" fill="#000000">start_time </text>
<text text-anchor="start" x="371.338" y="-128.9" font-family="Arial" font-size="14.00" fill="#666666">[time without time zone]</text>
<polygon fill="none" stroke="#000000" points="299,-87.5 299,-117.5 552,-117.5 552,-87.5 299,-87.5"/>
<text text-anchor="start" x="306" y="-98.9" font-family="Arial" font-size="14.00" fill="#000000">end_time </text>
<text text-anchor="start" x="367.4614" y="-98.9" font-family="Arial" font-size="14.00" fill="#666666">[time without time zone]</text>
</g>
<!-- public.accounts -->
<g id="node3" class="node">
<title>public.accounts</title>
<polygon fill="#efefef" stroke="transparent" points="656,-357.5 656,-392.5 909,-392.5 909,-357.5 656,-357.5"/>
<polygon fill="none" stroke="#000000" points="656,-357.5 656,-392.5 909,-392.5 909,-357.5 656,-357.5"/>
<text text-anchor="start" x="671.855" y="-370.3" font-family="Arial Bold" font-size="18.00" fill="#000000">public.accounts</text>
<text text-anchor="start" x="795.8912" y="-370.3" font-family="Arial" font-size="14.00" fill="#000000"> </text>
<text text-anchor="start" x="799.7818" y="-370.3" font-family="Arial" font-size="14.00" fill="#666666">[BASE TABLE]</text>
<polygon fill="none" stroke="#000000" points="656,-327.5 656,-357.5 909,-357.5 909,-327.5 656,-327.5"/>
<text text-anchor="start" x="663" y="-338.9" font-family="Arial" font-size="14.00" fill="#000000">id </text>
<text text-anchor="start" x="677.7798" y="-338.9" font-family="Arial" font-size="14.00" fill="#666666">[bigint]</text>
<polygon fill="none" stroke="#000000" points="656,-297.5 656,-327.5 909,-327.5 909,-297.5 656,-297.5"/>
<text text-anchor="start" x="663" y="-308.9" font-family="Arial" font-size="14.00" fill="#000000">created_at </text>
<text text-anchor="start" x="733.028" y="-308.9" font-family="Arial" font-size="14.00" fill="#666666">[timestamp with time zone]</text>
<polygon fill="none" stroke="#000000" points="656,-267.5 656,-297.5 909,-297.5 909,-267.5 656,-267.5"/>
<text text-anchor="start" x="662.6915" y="-278.9" font-family="Arial" font-size="14.00" fill="#000000">updated_at </text>
<text text-anchor="start" x="736.6241" y="-278.9" font-family="Arial" font-size="14.00" fill="#666666">[timestamp with time zone]</text>
<polygon fill="none" stroke="#000000" points="656,-237.5 656,-267.5 909,-267.5 909,-237.5 656,-237.5"/>
<text text-anchor="start" x="663" y="-248.9" font-family="Arial" font-size="14.00" fill="#000000">name </text>
<text text-anchor="start" x="701.899" y="-248.9" font-family="Arial" font-size="14.00" fill="#666666">[varchar(255)]</text>
<polygon fill="none" stroke="#000000" points="656,-207.5 656,-237.5 909,-237.5 909,-207.5 656,-207.5"/>
<text text-anchor="start" x="663" y="-218.9" font-family="Arial" font-size="14.00" fill="#000000">email </text>
<text text-anchor="start" x="700.3296" y="-218.9" font-family="Arial" font-size="14.00" fill="#666666">[varchar(255)]</text>
<polygon fill="none" stroke="#000000" points="656,-177.5 656,-207.5 909,-207.5 909,-177.5 656,-177.5"/>
<text text-anchor="start" x="663" y="-188.9" font-family="Arial" font-size="14.00" fill="#000000">picture </text>
<text text-anchor="start" x="708.8962" y="-188.9" font-family="Arial" font-size="14.00" fill="#666666">[varchar(1024)]</text>
<polygon fill="none" stroke="#000000" points="656,-147.5 656,-177.5 909,-177.5 909,-147.5 656,-147.5"/>
<text text-anchor="start" x="663" y="-158.9" font-family="Arial" font-size="14.00" fill="#000000">organization </text>
<text text-anchor="start" x="743.1332" y="-158.9" font-family="Arial" font-size="14.00" fill="#666666">[varchar(255)]</text>
<polygon fill="none" stroke="#000000" points="656,-117.5 656,-147.5 909,-147.5 909,-117.5 656,-117.5"/>
<text text-anchor="start" x="663" y="-128.9" font-family="Arial" font-size="14.00" fill="#000000">status </text>
<text text-anchor="start" x="704.237" y="-128.9" font-family="Arial" font-size="14.00" fill="#666666">[integer]</text>
<polygon fill="none" stroke="#000000" points="656,-87.5 656,-117.5 909,-117.5 909,-87.5 656,-87.5"/>
<text text-anchor="start" x="663" y="-98.9" font-family="Arial" font-size="14.00" fill="#000000">user_timezone </text>
<text text-anchor="start" x="758.6872" y="-98.9" font-family="Arial" font-size="14.00" fill="#666666">[varchar(64)]</text>
<polygon fill="none" stroke="#000000" points="656,-57.5 656,-87.5 909,-87.5 909,-57.5 656,-57.5"/>
<text text-anchor="start" x="663" y="-68.9" font-family="Arial" font-size="14.00" fill="#000000">expired_at </text>
<text text-anchor="start" x="732.244" y="-68.9" font-family="Arial" font-size="14.00" fill="#666666">[timestamp with time zone]</text>
</g>
<!-- public.account_contact -->
<g id="node4" class="node">
<title>public.account_contact</title>
<polygon fill="#efefef" stroke="transparent" points="457,-754.5 457,-789.5 751,-789.5 751,-754.5 457,-754.5"/>
<polygon fill="none" stroke="#000000" points="457,-754.5 457,-789.5 751,-789.5 751,-754.5 457,-754.5"/>
<text text-anchor="start" x="463.8404" y="-767.3" font-family="Arial Bold" font-size="18.00" fill="#000000">public.account_contact</text>
<text text-anchor="start" x="646.9058" y="-767.3" font-family="Arial" font-size="14.00" fill="#000000"> </text>
<text text-anchor="start" x="650.7964" y="-767.3" font-family="Arial" font-size="14.00" fill="#666666">[BASE TABLE]</text>
<polygon fill="none" stroke="#000000" points="457,-724.5 457,-754.5 751,-754.5 751,-724.5 457,-724.5"/>
<text text-anchor="start" x="464" y="-735.9" font-family="Arial" font-size="14.00" fill="#000000">id </text>
<text text-anchor="start" x="478.7798" y="-735.9" font-family="Arial" font-size="14.00" fill="#666666">[bigint]</text>
<polygon fill="none" stroke="#000000" points="457,-694.5 457,-724.5 751,-724.5 751,-694.5 457,-694.5"/>
<text text-anchor="start" x="464" y="-705.9" font-family="Arial" font-size="14.00" fill="#000000">created_at </text>
<text text-anchor="start" x="534.028" y="-705.9" font-family="Arial" font-size="14.00" fill="#666666">[timestamp with time zone]</text>
<polygon fill="none" stroke="#000000" points="457,-664.5 457,-694.5 751,-694.5 751,-664.5 457,-664.5"/>
<text text-anchor="start" x="464" y="-675.9" font-family="Arial" font-size="14.00" fill="#000000">updated_at </text>
<text text-anchor="start" x="537.9326" y="-675.9" font-family="Arial" font-size="14.00" fill="#666666">[timestamp with time zone]</text>
<polygon fill="none" stroke="#000000" points="457,-634.5 457,-664.5 751,-664.5 751,-634.5 457,-634.5"/>
<text text-anchor="start" x="464" y="-645.9" font-family="Arial" font-size="14.00" fill="#000000">account_id </text>
<text text-anchor="start" x="535.5834" y="-645.9" font-family="Arial" font-size="14.00" fill="#666666">[bigint]</text>
<polygon fill="none" stroke="#000000" points="457,-604.5 457,-634.5 751,-634.5 751,-604.5 457,-604.5"/>
<text text-anchor="start" x="464" y="-615.9" font-family="Arial" font-size="14.00" fill="#000000">contact_id </text>
<text text-anchor="start" x="531.6914" y="-615.9" font-family="Arial" font-size="14.00" fill="#666666">[bigint]</text>
</g>
<!-- public.account_contact&#45;&gt;public.contacts -->
<g id="edge1" class="edge">
<title>public.account_contact:contact_id&#45;&gt;public.contacts:id</title>
<path fill="none" stroke="#000000" d="M447.1815,-616.5527C437.7685,-607.9462 451.3378,-582.1844 457,-562 478.926,-483.8394 530.074,-484.1606 552,-406 563.2241,-365.989 593.5556,-312.5 552,-312.5"/>
<polygon fill="#000000" stroke="#000000" points="447.4222,-616.6249 455.7062,-623.81 452.2111,-618.0624 457,-619.5 457,-619.5 457,-619.5 452.2111,-618.0624 458.2938,-615.19 447.4222,-616.6249 447.4222,-616.6249"/>
<text text-anchor="start" x="184.5155" y="-603.5" font-family="Arial" font-size="10.00" fill="#000000">FOREIGN KEY (contact_id) REFERENCES contacts(id) ON DELETE CASCADE</text>
</g>
<!-- public.account_contact&#45;&gt;public.accounts -->
<g id="edge2" class="edge">
<title>public.account_contact:account_id&#45;&gt;public.accounts:id</title>
<path fill="none" stroke="#000000" d="M760.9076,-648.0009C784.6435,-639.3591 762.0908,-595.1322 751,-562 728.7375,-495.4936 678.2625,-502.5064 656,-436 642.809,-396.5936 614.4444,-342.5 656,-342.5"/>
<polygon fill="#000000" stroke="#000000" points="760.8875,-648.0039 750.3267,-645.0506 755.9437,-648.7519 751,-649.5 751,-649.5 751,-649.5 755.9437,-648.7519 751.6733,-653.9494 760.8875,-648.0039 760.8875,-648.0039"/>
<text text-anchor="start" x="379.4855" y="-659.5" font-family="Arial" font-size="10.00" fill="#000000">FOREIGN KEY (account_id) REFERENCES accounts(id) ON DELETE CASCADE</text>
</g>
<!-- hdb_catalog.hdb_version -->
<g id="node5" class="node">
<title>hdb_catalog.hdb_version</title>
<polygon fill="#efefef" stroke="transparent" points="855,-754.5 855,-789.5 1167,-789.5 1167,-754.5 855,-754.5"/>
<polygon fill="none" stroke="#000000" points="855,-754.5 855,-789.5 1167,-789.5 1167,-754.5 855,-754.5"/>
<text text-anchor="start" x="861.8341" y="-767.3" font-family="Arial Bold" font-size="18.00" fill="#000000">hdb_catalog.hdb_version</text>
<text text-anchor="start" x="1062.9121" y="-767.3" font-family="Arial" font-size="14.00" fill="#000000"> </text>
<text text-anchor="start" x="1066.8027" y="-767.3" font-family="Arial" font-size="14.00" fill="#666666">[BASE TABLE]</text>
<polygon fill="none" stroke="#000000" points="855,-724.5 855,-754.5 1167,-754.5 1167,-724.5 855,-724.5"/>
<text text-anchor="start" x="862" y="-735.9" font-family="Arial" font-size="14.00" fill="#000000">hasura_uuid </text>
<text text-anchor="start" x="942.9186" y="-735.9" font-family="Arial" font-size="14.00" fill="#666666">[uuid]</text>
<polygon fill="none" stroke="#000000" points="855,-694.5 855,-724.5 1167,-724.5 1167,-694.5 855,-694.5"/>
<text text-anchor="start" x="862" y="-705.9" font-family="Arial" font-size="14.00" fill="#000000">version </text>
<text text-anchor="start" x="911.0056" y="-705.9" font-family="Arial" font-size="14.00" fill="#666666">[text]</text>
<polygon fill="none" stroke="#000000" points="855,-664.5 855,-694.5 1167,-694.5 1167,-664.5 855,-664.5"/>
<text text-anchor="start" x="862" y="-675.9" font-family="Arial" font-size="14.00" fill="#000000">upgraded_on </text>
<text text-anchor="start" x="948.3772" y="-675.9" font-family="Arial" font-size="14.00" fill="#666666">[timestamp with time zone]</text>
<polygon fill="none" stroke="#000000" points="855,-634.5 855,-664.5 1167,-664.5 1167,-634.5 855,-634.5"/>
<text text-anchor="start" x="862" y="-645.9" font-family="Arial" font-size="14.00" fill="#000000">cli_state </text>
<text text-anchor="start" x="917.2328" y="-645.9" font-family="Arial" font-size="14.00" fill="#666666">[jsonb]</text>
<polygon fill="none" stroke="#000000" points="855,-604.5 855,-634.5 1167,-634.5 1167,-604.5 855,-604.5"/>
<text text-anchor="start" x="862" y="-615.9" font-family="Arial" font-size="14.00" fill="#000000">console_state </text>
<text text-anchor="start" x="952.2566" y="-615.9" font-family="Arial" font-size="14.00" fill="#666666">[jsonb]</text>
</g>
<!-- hdb_catalog.hdb_metadata -->
<g id="node6" class="node">
<title>hdb_catalog.hdb_metadata</title>
<polygon fill="#efefef" stroke="transparent" points="1272,-724.5 1272,-759.5 1601,-759.5 1601,-724.5 1272,-724.5"/>
<polygon fill="none" stroke="#000000" points="1272,-724.5 1272,-759.5 1601,-759.5 1601,-724.5 1272,-724.5"/>
<text text-anchor="start" x="1278.8228" y="-737.3" font-family="Arial Bold" font-size="18.00" fill="#000000">hdb_catalog.hdb_metadata</text>
<text text-anchor="start" x="1496.9234" y="-737.3" font-family="Arial" font-size="14.00" fill="#000000"> </text>
<text text-anchor="start" x="1500.814" y="-737.3" font-family="Arial" font-size="14.00" fill="#666666">[BASE TABLE]</text>
<polygon fill="none" stroke="#000000" points="1272,-694.5 1272,-724.5 1601,-724.5 1601,-694.5 1272,-694.5"/>
<text text-anchor="start" x="1279" y="-705.9" font-family="Arial" font-size="14.00" fill="#000000">id </text>
<text text-anchor="start" x="1293.7798" y="-705.9" font-family="Arial" font-size="14.00" fill="#666666">[integer]</text>
<polygon fill="none" stroke="#000000" points="1272,-664.5 1272,-694.5 1601,-694.5 1601,-664.5 1272,-664.5"/>
<text text-anchor="start" x="1279" y="-675.9" font-family="Arial" font-size="14.00" fill="#000000">metadata </text>
<text text-anchor="start" x="1341.2454" y="-675.9" font-family="Arial" font-size="14.00" fill="#666666">[json]</text>
<polygon fill="none" stroke="#000000" points="1272,-634.5 1272,-664.5 1601,-664.5 1601,-634.5 1272,-634.5"/>
<text text-anchor="start" x="1279" y="-645.9" font-family="Arial" font-size="14.00" fill="#000000">resource_version </text>
<text text-anchor="start" x="1390.2398" y="-645.9" font-family="Arial" font-size="14.00" fill="#666666">[integer]</text>
</g>
<!-- hdb_catalog.hdb_action_log -->
<g id="node7" class="node">
<title>hdb_catalog.hdb_action_log</title>
<polygon fill="#efefef" stroke="transparent" points="1705,-829.5 1705,-864.5 2041,-864.5 2041,-829.5 1705,-829.5"/>
<polygon fill="none" stroke="#000000" points="1705,-829.5 1705,-864.5 2041,-864.5 2041,-829.5 1705,-829.5"/>
<text text-anchor="start" x="1711.8227" y="-842.3" font-family="Arial Bold" font-size="18.00" fill="#000000">hdb_catalog.hdb_action_log</text>
<text text-anchor="start" x="1936.9235" y="-842.3" font-family="Arial" font-size="14.00" fill="#000000"> </text>
<text text-anchor="start" x="1940.8141" y="-842.3" font-family="Arial" font-size="14.00" fill="#666666">[BASE TABLE]</text>
<polygon fill="none" stroke="#000000" points="1705,-799.5 1705,-829.5 2041,-829.5 2041,-799.5 1705,-799.5"/>
<text text-anchor="start" x="1712" y="-810.9" font-family="Arial" font-size="14.00" fill="#000000">id </text>
<text text-anchor="start" x="1726.7798" y="-810.9" font-family="Arial" font-size="14.00" fill="#666666">[uuid]</text>
<polygon fill="none" stroke="#000000" points="1705,-769.5 1705,-799.5 2041,-799.5 2041,-769.5 1705,-769.5"/>
<text text-anchor="start" x="1712" y="-780.9" font-family="Arial" font-size="14.00" fill="#000000">action_name </text>
<text text-anchor="start" x="1796.0266" y="-780.9" font-family="Arial" font-size="14.00" fill="#666666">[text]</text>
<polygon fill="none" stroke="#000000" points="1705,-739.5 1705,-769.5 2041,-769.5 2041,-739.5 1705,-739.5"/>
<text text-anchor="start" x="1712" y="-750.9" font-family="Arial" font-size="14.00" fill="#000000">input_payload </text>
<text text-anchor="start" x="1803.0378" y="-750.9" font-family="Arial" font-size="14.00" fill="#666666">[jsonb]</text>
<polygon fill="none" stroke="#000000" points="1705,-709.5 1705,-739.5 2041,-739.5 2041,-709.5 1705,-709.5"/>
<text text-anchor="start" x="1712" y="-720.9" font-family="Arial" font-size="14.00" fill="#000000">request_headers </text>
<text text-anchor="start" x="1820.9284" y="-720.9" font-family="Arial" font-size="14.00" fill="#666666">[jsonb]</text>
<polygon fill="none" stroke="#000000" points="1705,-679.5 1705,-709.5 2041,-709.5 2041,-679.5 1705,-679.5"/>
<text text-anchor="start" x="1712" y="-690.9" font-family="Arial" font-size="14.00" fill="#000000">session_variables </text>
<text text-anchor="start" x="1827.1318" y="-690.9" font-family="Arial" font-size="14.00" fill="#666666">[jsonb]</text>
<polygon fill="none" stroke="#000000" points="1705,-649.5 1705,-679.5 2041,-679.5 2041,-649.5 1705,-649.5"/>
<text text-anchor="start" x="1712" y="-660.9" font-family="Arial" font-size="14.00" fill="#000000">response_payload </text>
<text text-anchor="start" x="1830.2664" y="-660.9" font-family="Arial" font-size="14.00" fill="#666666">[jsonb]</text>
<polygon fill="none" stroke="#000000" points="1705,-619.5 1705,-649.5 2041,-649.5 2041,-619.5 1705,-619.5"/>
<text text-anchor="start" x="1712" y="-630.9" font-family="Arial" font-size="14.00" fill="#000000">errors </text>
<text text-anchor="start" x="1752.4376" y="-630.9" font-family="Arial" font-size="14.00" fill="#666666">[jsonb]</text>
<polygon fill="none" stroke="#000000" points="1705,-589.5 1705,-619.5 2041,-619.5 2041,-589.5 1705,-589.5"/>
<text text-anchor="start" x="1712" y="-600.9" font-family="Arial" font-size="14.00" fill="#000000">created_at </text>
<text text-anchor="start" x="1782.028" y="-600.9" font-family="Arial" font-size="14.00" fill="#666666">[timestamp with time zone]</text>
<polygon fill="none" stroke="#000000" points="1705,-559.5 1705,-589.5 2041,-589.5 2041,-559.5 1705,-559.5"/>
<text text-anchor="start" x="1712" y="-570.9" font-family="Arial" font-size="14.00" fill="#000000">response_received_at </text>
<text text-anchor="start" x="1853.6002" y="-570.9" font-family="Arial" font-size="14.00" fill="#666666">[timestamp with time zone]</text>
<polygon fill="none" stroke="#000000" points="1705,-529.5 1705,-559.5 2041,-559.5 2041,-529.5 1705,-529.5"/>
<text text-anchor="start" x="1712" y="-540.9" font-family="Arial" font-size="14.00" fill="#000000">status </text>
<text text-anchor="start" x="1753.237" y="-540.9" font-family="Arial" font-size="14.00" fill="#666666">[text]</text>
</g>
<!-- hdb_catalog.hdb_cron_events -->
<g id="node8" class="node">
<title>hdb_catalog.hdb_cron_events</title>
<polygon fill="#efefef" stroke="transparent" points="2209,-312.5 2209,-347.5 2561,-347.5 2561,-312.5 2209,-312.5"/>
<polygon fill="none" stroke="#000000" points="2209,-312.5 2209,-347.5 2561,-347.5 2561,-312.5 2209,-312.5"/>
<text text-anchor="start" x="2215.8208" y="-325.3" font-family="Arial Bold" font-size="18.00" fill="#000000">hdb_catalog.hdb_cron_events</text>
<text text-anchor="start" x="2456.9254" y="-325.3" font-family="Arial" font-size="14.00" fill="#000000"> </text>
<text text-anchor="start" x="2460.816" y="-325.3" font-family="Arial" font-size="14.00" fill="#666666">[BASE TABLE]</text>
<polygon fill="none" stroke="#000000" points="2209,-282.5 2209,-312.5 2561,-312.5 2561,-282.5 2209,-282.5"/>
<text text-anchor="start" x="2216" y="-293.9" font-family="Arial" font-size="14.00" fill="#000000">id </text>
<text text-anchor="start" x="2230.7798" y="-293.9" font-family="Arial" font-size="14.00" fill="#666666">[text]</text>
<polygon fill="none" stroke="#000000" points="2209,-252.5 2209,-282.5 2561,-282.5 2561,-252.5 2209,-252.5"/>
<text text-anchor="start" x="2216" y="-263.9" font-family="Arial" font-size="14.00" fill="#000000">trigger_name </text>
<text text-anchor="start" x="2302.3478" y="-263.9" font-family="Arial" font-size="14.00" fill="#666666">[text]</text>
<polygon fill="none" stroke="#000000" points="2209,-222.5 2209,-252.5 2561,-252.5 2561,-222.5 2209,-222.5"/>
<text text-anchor="start" x="2216" y="-233.9" font-family="Arial" font-size="14.00" fill="#000000">scheduled_time </text>
<text text-anchor="start" x="2317.9158" y="-233.9" font-family="Arial" font-size="14.00" fill="#666666">[timestamp with time zone]</text>
<polygon fill="none" stroke="#000000" points="2209,-192.5 2209,-222.5 2561,-222.5 2561,-192.5 2209,-192.5"/>
<text text-anchor="start" x="2216" y="-203.9" font-family="Arial" font-size="14.00" fill="#000000">status </text>
<text text-anchor="start" x="2257.237" y="-203.9" font-family="Arial" font-size="14.00" fill="#666666">[text]</text>
<polygon fill="none" stroke="#000000" points="2209,-162.5 2209,-192.5 2561,-192.5 2561,-162.5 2209,-162.5"/>
<text text-anchor="start" x="2216" y="-173.9" font-family="Arial" font-size="14.00" fill="#000000">tries </text>
<text text-anchor="start" x="2246.331" y="-173.9" font-family="Arial" font-size="14.00" fill="#666666">[integer]</text>
<polygon fill="none" stroke="#000000" points="2209,-132.5 2209,-162.5 2561,-162.5 2561,-132.5 2209,-132.5"/>
<text text-anchor="start" x="2216" y="-143.9" font-family="Arial" font-size="14.00" fill="#000000">created_at </text>
<text text-anchor="start" x="2286.028" y="-143.9" font-family="Arial" font-size="14.00" fill="#666666">[timestamp with time zone]</text>
<polygon fill="none" stroke="#000000" points="2209,-102.5 2209,-132.5 2561,-132.5 2561,-102.5 2209,-102.5"/>
<text text-anchor="start" x="2216" y="-113.9" font-family="Arial" font-size="14.00" fill="#000000">next_retry_at </text>
<text text-anchor="start" x="2301.5792" y="-113.9" font-family="Arial" font-size="14.00" fill="#666666">[timestamp with time zone]</text>
</g>
<!-- hdb_catalog.hdb_cron_event_invocation_logs -->
<g id="node9" class="node">
<title>hdb_catalog.hdb_cron_event_invocation_logs</title>
<polygon fill="#efefef" stroke="transparent" points="2146,-769.5 2146,-804.5 2623,-804.5 2623,-769.5 2146,-769.5"/>
<polygon fill="none" stroke="#000000" points="2146,-769.5 2146,-804.5 2623,-804.5 2623,-769.5 2146,-769.5"/>
<text text-anchor="start" x="2152.8005" y="-782.3" font-family="Arial Bold" font-size="18.00" fill="#000000">hdb_catalog.hdb_cron_event_invocation_logs</text>
<text text-anchor="start" x="2518.9457" y="-782.3" font-family="Arial" font-size="14.00" fill="#000000"> </text>
<text text-anchor="start" x="2522.8363" y="-782.3" font-family="Arial" font-size="14.00" fill="#666666">[BASE TABLE]</text>
<polygon fill="none" stroke="#000000" points="2146,-739.5 2146,-769.5 2623,-769.5 2623,-739.5 2146,-739.5"/>
<text text-anchor="start" x="2153" y="-750.9" font-family="Arial" font-size="14.00" fill="#000000">id </text>
<text text-anchor="start" x="2167.7798" y="-750.9" font-family="Arial" font-size="14.00" fill="#666666">[text]</text>
<polygon fill="none" stroke="#000000" points="2146,-709.5 2146,-739.5 2623,-739.5 2623,-709.5 2146,-709.5"/>
<text text-anchor="start" x="2153" y="-720.9" font-family="Arial" font-size="14.00" fill="#000000">event_id </text>
<text text-anchor="start" x="2209.8008" y="-720.9" font-family="Arial" font-size="14.00" fill="#666666">[text]</text>
<polygon fill="none" stroke="#000000" points="2146,-679.5 2146,-709.5 2623,-709.5 2623,-679.5 2146,-679.5"/>
<text text-anchor="start" x="2153" y="-690.9" font-family="Arial" font-size="14.00" fill="#000000">status </text>
<text text-anchor="start" x="2194.237" y="-690.9" font-family="Arial" font-size="14.00" fill="#666666">[integer]</text>
<polygon fill="none" stroke="#000000" points="2146,-649.5 2146,-679.5 2623,-679.5 2623,-649.5 2146,-649.5"/>
<text text-anchor="start" x="2153" y="-660.9" font-family="Arial" font-size="14.00" fill="#000000">request </text>
<text text-anchor="start" x="2203.5722" y="-660.9" font-family="Arial" font-size="14.00" fill="#666666">[json]</text>
<polygon fill="none" stroke="#000000" points="2146,-619.5 2146,-649.5 2623,-649.5 2623,-619.5 2146,-619.5"/>
<text text-anchor="start" x="2153" y="-630.9" font-family="Arial" font-size="14.00" fill="#000000">response </text>
<text text-anchor="start" x="2214.4642" y="-630.9" font-family="Arial" font-size="14.00" fill="#666666">[json]</text>
<polygon fill="none" stroke="#000000" points="2146,-589.5 2146,-619.5 2623,-619.5 2623,-589.5 2146,-589.5"/>
<text text-anchor="start" x="2153" y="-600.9" font-family="Arial" font-size="14.00" fill="#000000">created_at </text>
<text text-anchor="start" x="2223.028" y="-600.9" font-family="Arial" font-size="14.00" fill="#666666">[timestamp with time zone]</text>
</g>
<!-- hdb_catalog.hdb_cron_event_invocation_logs&#45;&gt;hdb_catalog.hdb_cron_events -->
<g id="edge3" class="edge">
<title>hdb_catalog.hdb_cron_event_invocation_logs:event_id&#45;&gt;hdb_catalog.hdb_cron_events:id</title>
<path fill="none" stroke="#000000" d="M2633.3601,-723.7741C2698.677,-714.0465 2665.7793,-608.8354 2623,-547 2511.1292,-385.2964 2320.8708,-552.7036 2209,-391 2185.3573,-356.8256 2167.4444,-297.5 2209,-297.5"/>
<polygon fill="#000000" stroke="#000000" points="2632.9755,-723.801 2622.6854,-720.011 2627.9878,-724.1505 2623,-724.5 2623,-724.5 2623,-724.5 2627.9878,-724.1505 2623.3146,-728.989 2632.9755,-723.801 2632.9755,-723.801"/>
<text text-anchor="start" x="2055.688" y="-734.5" font-family="Arial" font-size="10.00" fill="#000000">FOREIGN KEY (event_id) REFERENCES hdb_catalog.hdb_cron_events(id) ON UPDATE CASCADE ON DELETE CASCADE</text>
</g>
<!-- hdb_catalog.hdb_scheduled_events -->
<g id="node10" class="node">
<title>hdb_catalog.hdb_scheduled_events</title>
<polygon fill="#efefef" stroke="transparent" points="2789,-372.5 2789,-407.5 3188,-407.5 3188,-372.5 2789,-372.5"/>
<polygon fill="none" stroke="#000000" points="2789,-372.5 2789,-407.5 3188,-407.5 3188,-372.5 2789,-372.5"/>
<text text-anchor="start" x="2795.8074" y="-385.3" font-family="Arial Bold" font-size="18.00" fill="#000000">hdb_catalog.hdb_scheduled_events</text>
<text text-anchor="start" x="3083.9388" y="-385.3" font-family="Arial" font-size="14.00" fill="#000000"> </text>
<text text-anchor="start" x="3087.8294" y="-385.3" font-family="Arial" font-size="14.00" fill="#666666">[BASE TABLE]</text>
<polygon fill="none" stroke="#000000" points="2789,-342.5 2789,-372.5 3188,-372.5 3188,-342.5 2789,-342.5"/>
<text text-anchor="start" x="2796" y="-353.9" font-family="Arial" font-size="14.00" fill="#000000">id </text>
<text text-anchor="start" x="2810.7798" y="-353.9" font-family="Arial" font-size="14.00" fill="#666666">[text]</text>
<polygon fill="none" stroke="#000000" points="2789,-312.5 2789,-342.5 3188,-342.5 3188,-312.5 2789,-312.5"/>
<text text-anchor="start" x="2796" y="-323.9" font-family="Arial" font-size="14.00" fill="#000000">webhook_conf </text>
<text text-anchor="start" x="2890.1486" y="-323.9" font-family="Arial" font-size="14.00" fill="#666666">[json]</text>
<polygon fill="none" stroke="#000000" points="2789,-282.5 2789,-312.5 3188,-312.5 3188,-282.5 2789,-282.5"/>
<text text-anchor="start" x="2796" y="-293.9" font-family="Arial" font-size="14.00" fill="#000000">scheduled_time </text>
<text text-anchor="start" x="2897.9158" y="-293.9" font-family="Arial" font-size="14.00" fill="#666666">[timestamp with time zone]</text>
<polygon fill="none" stroke="#000000" points="2789,-252.5 2789,-282.5 3188,-282.5 3188,-252.5 2789,-252.5"/>
<text text-anchor="start" x="2796" y="-263.9" font-family="Arial" font-size="14.00" fill="#000000">retry_conf </text>
<text text-anchor="start" x="2862.1234" y="-263.9" font-family="Arial" font-size="14.00" fill="#666666">[json]</text>
<polygon fill="none" stroke="#000000" points="2789,-222.5 2789,-252.5 3188,-252.5 3188,-222.5 2789,-222.5"/>
<text text-anchor="start" x="2796" y="-233.9" font-family="Arial" font-size="14.00" fill="#000000">payload </text>
<text text-anchor="start" x="2848.9102" y="-233.9" font-family="Arial" font-size="14.00" fill="#666666">[json]</text>
<polygon fill="none" stroke="#000000" points="2789,-192.5 2789,-222.5 3188,-222.5 3188,-192.5 2789,-192.5"/>
<text text-anchor="start" x="2796" y="-203.9" font-family="Arial" font-size="14.00" fill="#000000">header_conf </text>
<text text-anchor="start" x="2877.7026" y="-203.9" font-family="Arial" font-size="14.00" fill="#666666">[json]</text>
<polygon fill="none" stroke="#000000" points="2789,-162.5 2789,-192.5 3188,-192.5 3188,-162.5 2789,-162.5"/>
<text text-anchor="start" x="2796" y="-173.9" font-family="Arial" font-size="14.00" fill="#000000">status </text>
<text text-anchor="start" x="2837.237" y="-173.9" font-family="Arial" font-size="14.00" fill="#666666">[text]</text>
<polygon fill="none" stroke="#000000" points="2789,-132.5 2789,-162.5 3188,-162.5 3188,-132.5 2789,-132.5"/>
<text text-anchor="start" x="2796" y="-143.9" font-family="Arial" font-size="14.00" fill="#000000">tries </text>
<text text-anchor="start" x="2826.331" y="-143.9" font-family="Arial" font-size="14.00" fill="#666666">[integer]</text>
<polygon fill="none" stroke="#000000" points="2789,-102.5 2789,-132.5 3188,-132.5 3188,-102.5 2789,-102.5"/>
<text text-anchor="start" x="2796" y="-113.9" font-family="Arial" font-size="14.00" fill="#000000">created_at </text>
<text text-anchor="start" x="2866.028" y="-113.9" font-family="Arial" font-size="14.00" fill="#666666">[timestamp with time zone]</text>
<polygon fill="none" stroke="#000000" points="2789,-72.5 2789,-102.5 3188,-102.5 3188,-72.5 2789,-72.5"/>
<text text-anchor="start" x="2796" y="-83.9" font-family="Arial" font-size="14.00" fill="#000000">next_retry_at </text>
<text text-anchor="start" x="2881.5792" y="-83.9" font-family="Arial" font-size="14.00" fill="#666666">[timestamp with time zone]</text>
<polygon fill="none" stroke="#000000" points="2789,-42.5 2789,-72.5 3188,-72.5 3188,-42.5 2789,-42.5"/>
<text text-anchor="start" x="2796" y="-53.9" font-family="Arial" font-size="14.00" fill="#000000">comment </text>
<text text-anchor="start" x="2857.4502" y="-53.9" font-family="Arial" font-size="14.00" fill="#666666">[text]</text>
</g>
<!-- hdb_catalog.hdb_scheduled_event_invocation_logs -->
<g id="node11" class="node">
<title>hdb_catalog.hdb_scheduled_event_invocation_logs</title>
<polygon fill="#efefef" stroke="transparent" points="2727,-769.5 2727,-804.5 3251,-804.5 3251,-769.5 2727,-769.5"/>
<polygon fill="none" stroke="#000000" points="2727,-769.5 2727,-804.5 3251,-804.5 3251,-769.5 2727,-769.5"/>
<text text-anchor="start" x="2733.7871" y="-782.3" font-family="Arial Bold" font-size="18.00" fill="#000000">hdb_catalog.hdb_scheduled_event_invocation_logs</text>
<text text-anchor="start" x="3146.9591" y="-782.3" font-family="Arial" font-size="14.00" fill="#000000"> </text>
<text text-anchor="start" x="3150.8497" y="-782.3" font-family="Arial" font-size="14.00" fill="#666666">[BASE TABLE]</text>
<polygon fill="none" stroke="#000000" points="2727,-739.5 2727,-769.5 3251,-769.5 3251,-739.5 2727,-739.5"/>
<text text-anchor="start" x="2734" y="-750.9" font-family="Arial" font-size="14.00" fill="#000000">id </text>
<text text-anchor="start" x="2748.7798" y="-750.9" font-family="Arial" font-size="14.00" fill="#666666">[text]</text>
<polygon fill="none" stroke="#000000" points="2727,-709.5 2727,-739.5 3251,-739.5 3251,-709.5 2727,-709.5"/>
<text text-anchor="start" x="2734" y="-720.9" font-family="Arial" font-size="14.00" fill="#000000">event_id </text>
<text text-anchor="start" x="2790.8008" y="-720.9" font-family="Arial" font-size="14.00" fill="#666666">[text]</text>
<polygon fill="none" stroke="#000000" points="2727,-679.5 2727,-709.5 3251,-709.5 3251,-679.5 2727,-679.5"/>
<text text-anchor="start" x="2734" y="-690.9" font-family="Arial" font-size="14.00" fill="#000000">status </text>
<text text-anchor="start" x="2775.237" y="-690.9" font-family="Arial" font-size="14.00" fill="#666666">[integer]</text>
<polygon fill="none" stroke="#000000" points="2727,-649.5 2727,-679.5 3251,-679.5 3251,-649.5 2727,-649.5"/>
<text text-anchor="start" x="2734" y="-660.9" font-family="Arial" font-size="14.00" fill="#000000">request </text>
<text text-anchor="start" x="2784.5722" y="-660.9" font-family="Arial" font-size="14.00" fill="#666666">[json]</text>
<polygon fill="none" stroke="#000000" points="2727,-619.5 2727,-649.5 3251,-649.5 3251,-619.5 2727,-619.5"/>
<text text-anchor="start" x="2734" y="-630.9" font-family="Arial" font-size="14.00" fill="#000000">response </text>
<text text-anchor="start" x="2795.4642" y="-630.9" font-family="Arial" font-size="14.00" fill="#666666">[json]</text>
<polygon fill="none" stroke="#000000" points="2727,-589.5 2727,-619.5 3251,-619.5 3251,-589.5 2727,-589.5"/>
<text text-anchor="start" x="2734" y="-600.9" font-family="Arial" font-size="14.00" fill="#000000">created_at </text>
<text text-anchor="start" x="2804.028" y="-600.9" font-family="Arial" font-size="14.00" fill="#666666">[timestamp with time zone]</text>
</g>
<!-- hdb_catalog.hdb_scheduled_event_invocation_logs&#45;&gt;hdb_catalog.hdb_scheduled_events -->
<g id="edge4" class="edge">
<title>hdb_catalog.hdb_scheduled_event_invocation_logs:event_id&#45;&gt;hdb_catalog.hdb_scheduled_events:id</title>
<path fill="none" stroke="#000000" d="M2717.0144,-723.8115C2650.7687,-714.1628 2679.463,-605.456 2727,-547 2859.0425,-384.628 3055.9575,-613.372 3188,-451 3214.2184,-418.7593 3229.5556,-357.5 3188,-357.5"/>
<polygon fill="#000000" stroke="#000000" points="2717.0237,-723.812 2726.6904,-728.9893 2722.0118,-724.156 2727,-724.5 2727,-724.5 2727,-724.5 2722.0118,-724.156 2727.3096,-720.0107 2717.0237,-723.812 2717.0237,-723.812"/>
<text text-anchor="start" x="2733.625" y="-734.5" font-family="Arial" font-size="10.00" fill="#000000">FOREIGN KEY (event_id) REFERENCES hdb_catalog.hdb_scheduled_events(id) ON UPDATE CASCADE ON DELETE CASCADE</text>
</g>
<!-- hdb_catalog.hdb_schema_notifications -->
<g id="node12" class="node">
<title>hdb_catalog.hdb_schema_notifications</title>
<polygon fill="#efefef" stroke="transparent" points="3355,-754.5 3355,-789.5 3777,-789.5 3777,-754.5 3355,-754.5"/>
<polygon fill="none" stroke="#000000" points="3355,-754.5 3355,-789.5 3777,-789.5 3777,-754.5 3355,-754.5"/>
<text text-anchor="start" x="3361.818" y="-767.3" font-family="Arial Bold" font-size="18.00" fill="#000000">hdb_catalog.hdb_schema_notifications</text>
<text text-anchor="start" x="3672.9282" y="-767.3" font-family="Arial" font-size="14.00" fill="#000000"> </text>
<text text-anchor="start" x="3676.8188" y="-767.3" font-family="Arial" font-size="14.00" fill="#666666">[BASE TABLE]</text>
<polygon fill="none" stroke="#000000" points="3355,-724.5 3355,-754.5 3777,-754.5 3777,-724.5 3355,-724.5"/>
<text text-anchor="start" x="3362" y="-735.9" font-family="Arial" font-size="14.00" fill="#000000">id </text>
<text text-anchor="start" x="3376.7798" y="-735.9" font-family="Arial" font-size="14.00" fill="#666666">[integer]</text>
<polygon fill="none" stroke="#000000" points="3355,-694.5 3355,-724.5 3777,-724.5 3777,-694.5 3355,-694.5"/>
<text text-anchor="start" x="3362" y="-705.9" font-family="Arial" font-size="14.00" fill="#000000">notification </text>
<text text-anchor="start" x="3432.7952" y="-705.9" font-family="Arial" font-size="14.00" fill="#666666">[json]</text>
<polygon fill="none" stroke="#000000" points="3355,-664.5 3355,-694.5 3777,-694.5 3777,-664.5 3355,-664.5"/>
<text text-anchor="start" x="3362" y="-675.9" font-family="Arial" font-size="14.00" fill="#000000">resource_version </text>
<text text-anchor="start" x="3473.2398" y="-675.9" font-family="Arial" font-size="14.00" fill="#666666">[integer]</text>
<polygon fill="none" stroke="#000000" points="3355,-634.5 3355,-664.5 3777,-664.5 3777,-634.5 3355,-634.5"/>
<text text-anchor="start" x="3362" y="-645.9" font-family="Arial" font-size="14.00" fill="#000000">instance_id </text>
<text text-anchor="start" x="3436.69" y="-645.9" font-family="Arial" font-size="14.00" fill="#666666">[uuid]</text>
<polygon fill="none" stroke="#000000" points="3355,-604.5 3355,-634.5 3777,-634.5 3777,-604.5 3355,-604.5"/>
<text text-anchor="start" x="3362" y="-615.9" font-family="Arial" font-size="14.00" fill="#000000">updated_at </text>
<text text-anchor="start" x="3435.9326" y="-615.9" font-family="Arial" font-size="14.00" fill="#666666">[timestamp with time zone]</text>
</g>
</g>
</svg>
